<svg xmlns="http://www.w3.org/2000/svg" width="285.357" height="252.124" viewBox="0 0 285.357 252.124">
  <g id="Group_3" data-name="Group 3" transform="translate(6 61.331)">
    <path id="Path_2" data-name="Path 2" d="M441.983,244.639H407.332v-7.495a1.793,1.793,0,0,0-1.793-1.793H395.364v-7.983a1.128,1.128,0,0,0-1.128-1.128H381.128A1.128,1.128,0,0,0,380,227.368v7.986H368.037a1.793,1.793,0,0,0-1.793,1.793v7.495H333.2a.364.364,0,0,0-.362.364V344.5a.364.364,0,0,0,.362.364h21.96a.364.364,0,0,0,.364-.364V331.11a.367.367,0,0,1,.365-.364h9.276a.367.367,0,0,1,.364.364V344.5a.364.364,0,0,0,.362.364h43.393a.367.367,0,0,0,.364-.364V331.11a.364.364,0,0,1,.362-.364h9.276a.364.364,0,0,1,.364.364V344.5a.367.367,0,0,0,.364.364h21.96a.367.367,0,0,0,.364-.364V245A.367.367,0,0,0,441.983,244.639ZM351.6,326.1a.362.362,0,0,1-.362.362H337.67a.362.362,0,0,1-.365-.362v-4.619a.364.364,0,0,1,.364-.364h13.572a.364.364,0,0,1,.362.364Zm0-11.971a.362.362,0,0,1-.362.365H337.67a.362.362,0,0,1-.364-.365V309.5a.362.362,0,0,1,.364-.364h13.572a.362.362,0,0,1,.362.364Zm0-11.968a.364.364,0,0,1-.362.364H337.67a.364.364,0,0,1-.364-.364v-4.633a.364.364,0,0,1,.364-.364h13.572a.364.364,0,0,1,.362.364Zm0-11.971a.362.362,0,0,1-.362.364H337.67a.362.362,0,0,1-.364-.365V285.57a.362.362,0,0,1,.364-.364h13.572a.362.362,0,0,1,.362.364Zm0-11.968a.364.364,0,0,1-.362.364H337.67a.365.365,0,0,1-.364-.364v-4.633a.362.362,0,0,1,.364-.362h13.572a.362.362,0,0,1,.362.362Zm0-11.968a.362.362,0,0,1-.362.362H337.67a.362.362,0,0,1-.364-.362v-4.633a.364.364,0,0,1,.364-.364h13.572a.364.364,0,0,1,.362.364Zm0-11.971a.362.362,0,0,1-.362.365H337.67a.362.362,0,0,1-.364-.365v-4.617a.362.362,0,0,1,.364-.364h13.572a.362.362,0,0,1,.362.364Zm32.157,71.814a.362.362,0,0,1-.364.362H369.824a.364.364,0,0,1-.364-.362v-4.617a.367.367,0,0,1,.364-.364h13.564a.364.364,0,0,1,.364.364Zm0-11.971a.362.362,0,0,1-.364.364H369.824a.364.364,0,0,1-.364-.364V309.5a.364.364,0,0,1,.364-.364h13.564a.362.362,0,0,1,.364.364Zm0-11.968a.365.365,0,0,1-.364.364H369.824a.367.367,0,0,1-.364-.364v-4.63a.367.367,0,0,1,.364-.364h13.564a.364.364,0,0,1,.364.364Zm0-11.971a.362.362,0,0,1-.364.364H369.824a.364.364,0,0,1-.364-.364V285.57a.364.364,0,0,1,.364-.364h13.564a.362.362,0,0,1,.364.364Zm0-11.968a.365.365,0,0,1-.364.365H369.824a.367.367,0,0,1-.364-.365v-4.63a.364.364,0,0,1,.364-.362h13.564a.362.362,0,0,1,.364.362Zm0-11.968a.362.362,0,0,1-.364.362H369.824a.364.364,0,0,1-.364-.362v-4.63a.367.367,0,0,1,.364-.364h13.564a.364.364,0,0,1,.364.364Zm0-11.971a.362.362,0,0,1-.364.364H369.824a.364.364,0,0,1-.364-.364v-4.614a.364.364,0,0,1,.364-.364h13.564a.362.362,0,0,1,.364.364Zm21.973,71.814a.362.362,0,0,1-.364.362H391.8a.364.364,0,0,1-.364-.362v-4.614a.367.367,0,0,1,.364-.364h13.564a.364.364,0,0,1,.364.364Zm0-11.971a.362.362,0,0,1-.364.364H391.8a.364.364,0,0,1-.364-.364V309.5a.364.364,0,0,1,.364-.364h13.564a.362.362,0,0,1,.364.364Zm0-11.968a.364.364,0,0,1-.364.365H391.8a.367.367,0,0,1-.364-.365v-4.627a.367.367,0,0,1,.364-.364h13.564a.364.364,0,0,1,.364.364Zm0-11.971a.362.362,0,0,1-.364.364H391.8a.364.364,0,0,1-.364-.364V285.57a.364.364,0,0,1,.364-.364h13.564a.362.362,0,0,1,.364.364Zm0-11.968a.364.364,0,0,1-.364.364H391.8a.367.367,0,0,1-.364-.364v-4.627a.364.364,0,0,1,.364-.362h13.564a.362.362,0,0,1,.364.362Zm0-11.968a.362.362,0,0,1-.364.362H391.8a.364.364,0,0,1-.364-.362v-4.627a.367.367,0,0,1,.364-.364h13.564a.364.364,0,0,1,.364.364Zm0-11.971a.362.362,0,0,1-.364.364H391.8a.364.364,0,0,1-.364-.364v-4.611a.364.364,0,0,1,.364-.364h13.564a.362.362,0,0,1,.364.364Zm32.157,71.814a.364.364,0,0,1-.364.362H423.954a.362.362,0,0,1-.364-.362v-4.611a.364.364,0,0,1,.364-.364h13.564a.367.367,0,0,1,.364.364Zm0-11.971a.364.364,0,0,1-.364.364H423.954a.362.362,0,0,1-.364-.364V309.5a.362.362,0,0,1,.364-.364h13.564a.364.364,0,0,1,.364.364Zm0-11.968a.367.367,0,0,1-.364.364H423.954a.364.364,0,0,1-.364-.364v-4.625a.364.364,0,0,1,.364-.364h13.564a.367.367,0,0,1,.364.364Zm0-11.971a.364.364,0,0,1-.364.364H423.954a.362.362,0,0,1-.359-.356V285.57a.362.362,0,0,1,.364-.364h13.564a.365.365,0,0,1,.365.364Zm0-11.968a.367.367,0,0,1-.364.364H423.954a.364.364,0,0,1-.364-.364v-4.625a.362.362,0,0,1,.364-.362h13.564a.364.364,0,0,1,.364.362Zm0-11.968a.364.364,0,0,1-.364.362H423.954a.362.362,0,0,1-.364-.362v-4.625a.364.364,0,0,1,.364-.364h13.564a.367.367,0,0,1,.364.364Zm0-11.971a.364.364,0,0,1-.364.364H423.954a.362.362,0,0,1-.359-.356v-4.617a.362.362,0,0,1,.364-.364h13.564a.364.364,0,0,1,.365.364Z" transform="translate(-265.289 -191.254)" fill="#f2f2f2"/>
    <path id="Path_3" data-name="Path 3" d="M265.134,115.974l-4.19,2.657L263.487,114a4.144,4.144,0,0,0-2.532-.9h-.068a4.884,4.884,0,0,1-.869-.065l-1.42.9.607-1.107a5.038,5.038,0,0,1-2.484-1.89l-2.54,1.62,1.6-2.918a7.432,7.432,0,0,0-5.694-2.878,7.8,7.8,0,0,0-6.517,4.02,4.86,4.86,0,0,1-4.32,2.322h-.14c-2.918,0-5.283,3.31-5.283,7.389s2.376,7.392,5.294,7.392a3.974,3.974,0,0,0,1.839-.462,7.616,7.616,0,0,1,6.4-.124,6.658,6.658,0,0,0,5.437,0,7.621,7.621,0,0,1,6.336.124,3.974,3.974,0,0,0,1.822.462c2.918,0,5.283-3.31,5.283-7.392A9.368,9.368,0,0,0,265.134,115.974Z" transform="translate(-220.01 -141.031)" fill="#f2f2f2"/>
    <path id="Path_4" data-name="Path 4" d="M257.266,152.827a7.8,7.8,0,0,0-4.527.491,6.666,6.666,0,0,1-5.435,0,7.635,7.635,0,0,0-6.4.124,3.944,3.944,0,0,1-1.841.462c-2.592,0-4.749-2.611-5.2-6.056a4.975,4.975,0,0,0,1.3-1.4,7.28,7.28,0,0,1,13-.043,4.989,4.989,0,0,0,4.306,2.365h.068C254.61,148.758,256.4,150.413,257.266,152.827Z" transform="translate(-221.039 -166.07)" opacity="0.03"/>
    <path id="Path_5" data-name="Path 5" d="M854.579,101.248l-2.1,1.326,1.269-2.308a2.071,2.071,0,0,0-1.264-.451h-.032a2.323,2.323,0,0,1-.435-.032l-.707.451.3-.54a2.538,2.538,0,0,1-1.239-.94l-1.266.81.81-1.455a3.7,3.7,0,0,0-2.837-1.458,3.867,3.867,0,0,0-3.24,2.006,2.43,2.43,0,0,1-2.16,1.158h-.07c-1.455,0-2.635,1.65-2.635,3.685s1.18,3.685,2.635,3.685a1.976,1.976,0,0,0,.918-.229,3.8,3.8,0,0,1,3.188-.062,3.329,3.329,0,0,0,2.713,0,3.809,3.809,0,0,1,3.161.062,1.968,1.968,0,0,0,.907.224c1.455,0,2.635-1.65,2.635-3.685A4.691,4.691,0,0,0,854.579,101.248Z" transform="translate(-664.783 -114.65)" fill="#f2f2f2"/>
    <path id="Path_6" data-name="Path 6" d="M850.64,119.612a3.92,3.92,0,0,0-2.26.246,3.315,3.315,0,0,1-1.35.286,3.35,3.35,0,0,1-1.35-.292,3.807,3.807,0,0,0-3.191.062,1.968,1.968,0,0,1-.918.229c-1.293,0-2.368-1.3-2.592-3.021a2.5,2.5,0,0,0,.648-.7,3.628,3.628,0,0,1,6.479-.022,2.489,2.489,0,0,0,2.16,1.18h.035A2.709,2.709,0,0,1,850.64,119.612Z" transform="translate(-664.783 -127.622)" opacity="0.03"/>
    <path id="Path_7" data-name="Path 7" d="M652.823,189.031l-2.457,1.558,1.49-2.7a2.43,2.43,0,0,0-1.485-.54h-.041a2.918,2.918,0,0,1-.51-.038l-.832.54.356-.651a2.969,2.969,0,0,1-1.458-1.1l-1.49.945.942-1.712a4.36,4.36,0,0,0-3.34-1.69,4.58,4.58,0,0,0-3.823,2.36,2.851,2.851,0,0,1-2.527,1.35h-.084c-1.712,0-3.1,1.941-3.1,4.32s1.385,4.333,3.1,4.333a2.311,2.311,0,0,0,1.08-.27,4.471,4.471,0,0,1,3.75-.073,3.92,3.92,0,0,0,3.188,0,4.476,4.476,0,0,1,3.718.073,2.343,2.343,0,0,0,1.08.27c1.712,0,3.1-1.938,3.1-4.333a5.507,5.507,0,0,0-.659-2.638Z" transform="translate(-402.486 -148.155)" fill="#f2f2f2"/>
    <path id="Path_8" data-name="Path 8" d="M648.193,210.645a4.589,4.589,0,0,0-2.656.289,3.92,3.92,0,0,1-3.188,0,4.471,4.471,0,0,0-3.75.073,2.319,2.319,0,0,1-1.08.27c-1.52,0-2.786-1.531-3.048-3.55a2.9,2.9,0,0,0,.759-.81,4.277,4.277,0,0,1,7.629-.027,2.921,2.921,0,0,0,2.524,1.388h.03A3.141,3.141,0,0,1,648.193,210.645Z" transform="translate(-402.486 -163.427)" opacity="0.03"/>
    <path id="Path_9" data-name="Path 9" d="M932.787,599.053c0,.464,0,.929-.03,1.388a32.822,32.822,0,0,1-.643,5.316c-1.774,8.669-6.9,15.408-13.329,17.4a13.31,13.31,0,0,1-3.953.6c-9.916,0-17.953-11.069-17.953-24.7s8.037-24.7,17.953-24.7c9.3,0,16.952,9.735,17.862,22.206C932.757,597.376,932.787,598.211,932.787,599.053Z" transform="translate(-677.051 -445.382)" fill="#36334a"/>
    <path id="Path_10" data-name="Path 10" d="M968.528,616.511a32.821,32.821,0,0,1-.643,5.316c-1.774,8.669-6.9,15.407-13.329,17.4-4.981-2.292-8.677-10.883-8.677-21.131,0-12,5.076-21.733,11.339-21.733,5.256,0,9.679,6.863,10.961,16.174C968.358,613.811,968.474,615.145,968.528,616.511Z" transform="translate(-712.823 -461.45)" opacity="0.1"/>
    <path id="Path_11" data-name="Path 11" d="M695.88,450.669s48.6-9.989,74.244-.81c0,0,3.78,1.89,0,5.13,0,0,3.574,3.78-2.667,5.13l-24.8,1.525-46.779-4.765Z" transform="translate(-530.317 -351.669)" fill="#3f3d56"/>
    <path id="Path_12" data-name="Path 12" d="M727.38,457.142s41.606-8.553,63.566-.694c0,0,3.24,1.62,0,4.392,0,0,3.059,3.24-2.284,4.393l-21.231,1.3-40.051-4.074Z" transform="translate(-553.313 -356.886)" opacity="0.1"/>
    <path id="Path_13" data-name="Path 13" d="M718.914,469.328l-3.24-6.479s1.42-6.555-10.124-8.483c-.64-2.859-3.539-5.016-7.019-5.016a7.018,7.018,0,0,0-6.971,4.806c-1.658.143-3.423.338-5.313.594l-2.64,14.158-.329-.659s1.677-7.743-13.434-8.874a5.621,5.621,0,0,0,1.285-3.545c0-3.431-3.2-6.209-7.155-6.209s-7.154,2.778-7.154,6.209a5.669,5.669,0,0,0,1.5,3.8q-2.119.2-4.471.518l-2.97,15.929,13.769,1.89,21.868-3.24-1.936-3.874,12.465,1.712Z" transform="translate(-497.466 -354.129)" fill="#6c63ff"/>
    <path id="Path_14" data-name="Path 14" d="M718.914,469.328l-3.24-6.479s1.42-6.555-10.124-8.483c-.64-2.859-3.539-5.016-7.019-5.016a7.018,7.018,0,0,0-6.971,4.806c-1.658.143-3.423.338-5.313.594l-2.64,14.158-.329-.659s1.677-7.743-13.434-8.874a5.621,5.621,0,0,0,1.285-3.545c0-3.431-3.2-6.209-7.155-6.209s-7.154,2.778-7.154,6.209a5.669,5.669,0,0,0,1.5,3.8q-2.119.2-4.471.518l-2.97,15.929,13.769,1.89,21.868-3.24-1.936-3.874,12.465,1.712Z" transform="translate(-497.466 -354.129)" fill="#01717e"/>
    <path id="Path_15" data-name="Path 15" d="M721.37,436.728s-2.16-12.117,7.829-12.387,6.749,17.548,6.749,17.548,7.559,1.62,8.1,4.59-26.188,3.78-26.188,3.78Z" transform="translate(-546.363 -335.87)" fill="#02e2fc"/>
    <path id="Path_16" data-name="Path 16" d="M537.4,631.063c0,14.309-10.637,25.918-23.758,25.918s-23.758-11.609-23.758-25.918,10.769-28.213,23.893-28.213S537.4,616.748,537.4,631.063Z" transform="translate(-379.932 -466.188)" fill="#36334a"/>
    <ellipse id="Ellipse_1" data-name="Ellipse 1" cx="18.898" cy="21.865" rx="18.898" ry="21.865" transform="translate(114.808 144.089)" opacity="0.1"/>
    <ellipse id="Ellipse_2" data-name="Ellipse 2" cx="23.758" cy="25.918" rx="23.758" ry="25.918" transform="translate(5.467 136.525)" fill="#36334a"/>
    <path id="Path_17" data-name="Path 17" d="M312.357,469.35s-11.069.54-10.529,6.479,9.449,1.62,9.449,1.62Z" transform="translate(-242.636 -368.73)" fill="#36334a"/>
    <path id="Path_18" data-name="Path 18" d="M410.344,411.113,414.9,380.7s1.08-3.78-13.5-3.78c0,0-46.706-2.97-58.585,1.89,0,0-13.769,5.13-32.937,31.587C309.88,410.4,408.454,412.733,410.344,411.113Z" transform="translate(-248.528 -300.598)" fill="#3f3d56"/>
    <path id="Path_19" data-name="Path 19" d="M422.1,388.35l-8.369,33.207-5.248-.127-24.838-.6-55.4-1.35c-.154-2.624,26.08-29.776,26.08-29.776Z" transform="translate(-261.936 -309.598)" fill="#36334a"/>
    <path id="Path_20" data-name="Path 20" d="M533.47,451.478l2.262-8.747s-2.16-12.119,7.829-12.389,6.749,17.548,6.749,17.548,6.884,1.477,7.981,4.193Z" transform="translate(-411.754 -340.251)" fill="#02e2fc" opacity="0.2"/>
    <path id="Path_21" data-name="Path 21" d="M338.5,536.571c-1.62-15.659-11.744-19.033-11.744-19.033-9.719-.54-16.2,36.447-16.2,36.447l-74.784,6.749s2.565-31.452-15.524-36.582S197.438,555.874,196.628,561s-109.071-.54-112.04-2.7-1.89-22.948-1.08-24.568,2.97-8.909,2.97-8.909A14.956,14.956,0,0,1,88,519.365c.486-1.08.907-1.828.907-1.828,2.346-13.3,14.527-16.525,15.345-16.739h.043c3.24-3.24,33.207-5.4,33.207-5.4l11.339-2.16,92.189,1.812,3.923.078,46.868-2.254,31.7-1.525c7.289,0,11.069,18.358,11.069,18.358C341.335,525.907,338.5,536.571,338.5,536.571Z" transform="translate(-82.63 -384.79)" fill="#3f3d56"/>
    <ellipse id="Ellipse_3" data-name="Ellipse 3" cx="13.898" cy="8.701" rx="13.898" ry="8.701" transform="translate(84.496 124.926) rotate(-21.92)" opacity="0.1"/>
    <ellipse id="Ellipse_4" data-name="Ellipse 4" cx="13.898" cy="8.701" rx="13.898" ry="8.701" transform="translate(83.956 123.845) rotate(-21.92)" fill="#f2f2f2"/>
    <path id="Path_22" data-name="Path 22" d="M120.773,528.39a21.612,21.612,0,0,1-3.863,10.327c-3.853,5.81-9.136,9.231-12.389,8.229.486-1.08.907-1.828.907-1.828C107.773,531.813,119.955,528.592,120.773,528.39Z" transform="translate(-98.61 -411.83)" opacity="0.1"/>
    <path id="Path_23" data-name="Path 23" d="M117.773,526.39a21.612,21.612,0,0,1-3.863,10.327c-3.853,5.81-9.136,9.23-12.389,8.229.486-1.08.907-1.828.907-1.828C104.773,529.813,116.955,526.592,117.773,526.39Z" transform="translate(-96.42 -410.37)" fill="#f2f2f2"/>
    <path id="Path_24" data-name="Path 24" d="M158.658,451.66H137.33l-1.08-2.97h25.918Z" transform="translate(-99.466 -327.554)" fill="#36334a"/>
    <rect id="Rectangle_2" data-name="Rectangle 2" width="35.097" height="10.259" transform="translate(19.236 145.974)" fill="#36334a"/>
    <circle id="Ellipse_5" data-name="Ellipse 5" cx="4.86" cy="4.86" r="4.86" transform="translate(87.27 156.503)" opacity="0.1"/>
    <circle id="Ellipse_6" data-name="Ellipse 6" cx="4.86" cy="4.86" r="4.86" transform="translate(86.73 155.693)" fill="#f2f2f2"/>
    <ellipse id="Ellipse_7" data-name="Ellipse 7" cx="2.43" cy="5.13" rx="2.43" ry="5.13" transform="translate(1.417 152.453)" opacity="0.1"/>
    <ellipse id="Ellipse_8" data-name="Ellipse 8" cx="2.43" cy="5.13" rx="2.43" ry="5.13" transform="translate(0.607 152.183)" fill="#f2f2f2"/>
    <path id="Path_25" data-name="Path 25" d="M728.078,524.632c-2.97,9.179-3.24,23.488-3.24,23.488l-1.08,3.78-52.646,5.94s.27-26.458,1.08-38.877a50.412,50.412,0,0,0-2.843-19.787l3.923.078L720.141,497C727.97,502.489,730.743,516.39,728.078,524.632Z" transform="translate(-510.949 -388.915)" fill="#36334a"/>
    <path id="Path_26" data-name="Path 26" d="M839.073,536.079a1.326,1.326,0,0,0-1.22,1.536.948.948,0,0,0,.54.7c.872.435,6.677-.54,8.877-.929a1.493,1.493,0,0,0,1.247-1.331c.027-.383-.113-.71-.675-.71Z" transform="translate(-633.948 -416.911)" fill="#f2f2f2"/>
    <path id="Path_27" data-name="Path 27" d="M668.88,483.1s1.35,5.94,7.829,4.05l2.16-8.369-4.32-2.43Z" transform="translate(-510.606 -373.84)" fill="#36334a"/>
    <path id="Path_28" data-name="Path 28" d="M691.03,451.625c2.97-1.76,7.681-3.3,12.341.4a5.507,5.507,0,0,1,1.59,6.625c-1.525,3.3-5.146,6.884-13.6,2.594a5.454,5.454,0,0,1-2.057-1.82l-.043-.065a5.48,5.48,0,0,1,1.768-7.732Z" transform="translate(-524.822 -354.425)" fill="#36334a"/>
    <circle id="Ellipse_9" data-name="Ellipse 9" cx="5.4" cy="5.4" r="5.4" transform="translate(128.441 159.338)" fill="#f2f2f2"/>
    <ellipse id="Ellipse_10" data-name="Ellipse 10" cx="2.97" cy="5.4" rx="2.97" ry="5.4" transform="translate(242.372 149.618)" fill="#f2f2f2"/>
    <rect id="Rectangle_3" data-name="Rectangle 3" width="7.019" height="9.449" rx="3.51" transform="translate(130.196 148.134)" fill="#36334a"/>
    <path id="Path_29" data-name="Path 29" d="M899.99,510.19h0a1.89,1.89,0,0,1,1.89,1.89v4.32a3.24,3.24,0,0,1-3.24,3.24h0a1.89,1.89,0,0,1-1.89-1.89v-4.32A3.24,3.24,0,0,1,899.99,510.19Z" transform="translate(-654.648 -372.451)" fill="#36334a"/>
    <path id="Path_30" data-name="Path 30" d="M982.62,709.3h0a3.24,3.24,0,0,1-3.24-3.24v-2.97a3.24,3.24,0,0,1,3.24-3.24h0c1.782,0,1.62,1.458,1.62,3.24v2.97C984.237,707.841,984.407,709.3,982.62,709.3Z" transform="translate(-737.278 -537)" fill="#36334a"/>
    <path id="Path_31" data-name="Path 31" d="M872.91,556.19h0a3.24,3.24,0,0,1,3.24,3.24v4.05a2.16,2.16,0,0,1-2.16,2.16h0a3.24,3.24,0,0,1-3.24-3.24v-4.05A2.16,2.16,0,0,1,872.91,556.19Z" transform="translate(-635.668 -406.032)" fill="#36334a"/>
    <path id="Path_32" data-name="Path 32" d="M1017.842,658.55c0,.464,0,.929-.03,1.388a32.823,32.823,0,0,1-.643,5.316,3.3,3.3,0,0,1-.54.046,3.24,3.24,0,0,1-3.24-3.24v-2.97a3.24,3.24,0,0,1,3.24-3.24,3.162,3.162,0,0,1,.837.111c.1.027.194.057.286.092C1017.812,656.873,1017.842,657.707,1017.842,658.55Z" transform="translate(-762.107 -504.879)" fill="#36334a"/>
    <rect id="Rectangle_4" data-name="Rectangle 4" width="7.019" height="9.449" rx="3.51" transform="translate(143.83 159.608)" fill="#36334a"/>
    <rect id="Rectangle_5" data-name="Rectangle 5" width="7.019" height="9.449" rx="3.51" transform="translate(117.372 159.608)" fill="#36334a"/>
    <rect id="Rectangle_6" data-name="Rectangle 6" width="7.019" height="9.449" rx="3.51" transform="translate(130.331 173.646)" fill="#36334a"/>
    <path id="Path_54" data-name="Path 54" d="M1058.689,668c.74-1.369-.1-3.048-1.064-4.268s-2.141-2.492-2.117-4.05c.038-2.235,2.411-3.556,4.32-4.741a21.039,21.039,0,0,0,3.869-3.11,5.725,5.725,0,0,0,1.188-1.59,6.488,6.488,0,0,0,.356-2.829q-.122-4.787-.472-9.565" transform="translate(-792.854 -491.739)" fill="none" stroke="#3f3d56" stroke-miterlimit="10" stroke-width="4"/>
    <path id="Path_55" data-name="Path 55" d="M1084.256,628.213a3.482,3.482,0,0,0-1.741-2.859l-.78,1.544.024-1.871a3.531,3.531,0,0,0-1.15-.138,3.488,3.488,0,1,0,3.647,3.323Z" transform="translate(-808.75 -482.275)" fill="#02e2fc"/>
    <path id="Path_56" data-name="Path 56" d="M1062.252,710.916a3.488,3.488,0,0,1-6.585-1.431,3.446,3.446,0,0,1,.227-1.417,3.491,3.491,0,0,1,6.528.038l-2.179,1.774,2.395-.556A3.455,3.455,0,0,1,1062.252,710.916Z" transform="translate(-792.967 -541.368)" fill="#02e2fc"/>
    <path id="Path_57" data-name="Path 57" d="M1063.816,680.711a3.488,3.488,0,0,1-3.647-3.323,3.442,3.442,0,0,1,.3-1.587,3.51,3.51,0,0,1,2.238-1.933l-.016,1.439.788-1.566h0a3.488,3.488,0,0,1,3.645,3.323,3.419,3.419,0,0,1-.148,1.191A3.488,3.488,0,0,1,1063.816,680.711Z" transform="translate(-796.253 -517.936)" fill="#02e2fc"/>
    <path id="Path_58" data-name="Path 58" d="M1095.185,659.84a3.488,3.488,0,0,1-3.647-3.323,3.428,3.428,0,0,1,.329-1.652,3.486,3.486,0,0,1,4.859-1.552l-.615,1.687,1.266-1.218a3.486,3.486,0,0,1,1.129,2.408,3.422,3.422,0,0,1-.089.961A3.488,3.488,0,0,1,1095.185,659.84Z" transform="translate(-819.153 -502.7)" fill="#02e2fc"/>
    <path id="Path_59" data-name="Path 59" d="M1083.79,634.306c-.81.089-1.59.338-2.4.389a2.6,2.6,0,0,1-2.206-.772,10.863,10.863,0,0,1-.645-1.134,2.507,2.507,0,0,0-.877-.829,3.445,3.445,0,0,0-.375,1.741,3.488,3.488,0,0,0,6.9.575C1084.052,634.282,1083.919,634.293,1083.79,634.306Z" transform="translate(-808.751 -487.439)" opacity="0.1"/>
    <path id="Path_60" data-name="Path 60" d="M1095.185,665.246a3.488,3.488,0,0,1-3.647-3.323,3.428,3.428,0,0,1,.329-1.652,2.592,2.592,0,0,1,.7.7,10.786,10.786,0,0,0,.691,1.153,2.856,2.856,0,0,0,2.314.81c.842-.038,1.652-.27,2.492-.354.116,0,.235-.019.351-.022A3.488,3.488,0,0,1,1095.185,665.246Z" transform="translate(-819.153 -508.106)" opacity="0.1"/>
    <path id="Path_61" data-name="Path 61" d="M1063.816,686.291a3.488,3.488,0,0,1-3.647-3.323,3.442,3.442,0,0,1,.3-1.588,2.877,2.877,0,0,1,.729.707,13.773,13.773,0,0,0,.756,1.177,3.237,3.237,0,0,0,2.47.867c.891-.019,1.7-.232,2.554-.3A3.488,3.488,0,0,1,1063.816,686.291Z" transform="translate(-796.253 -523.516)" opacity="0.1"/>
    <path id="Path_62" data-name="Path 62" d="M1062.252,716.958a3.488,3.488,0,0,1-6.585-1.431,3.446,3.446,0,0,1,.227-1.417,3.508,3.508,0,0,1,.764.683,11.933,11.933,0,0,0,.934,1.239,4.365,4.365,0,0,0,2.889,1.018A15.4,15.4,0,0,0,1062.252,716.958Z" transform="translate(-792.967 -547.41)" opacity="0.1"/>
    <path id="Path_63" data-name="Path 63" d="M1047.81,739.68s2.751-.084,3.583-.675,4.233-1.3,4.441-.348,4.136,4.714,1.029,4.738-7.222-.483-8.051-.988S1047.81,739.68,1047.81,739.68Z" transform="translate(-787.234 -564.991)" fill="#656380"/>
    <path id="Path_64" data-name="Path 64" d="M1056.917,747.078c-3.108.024-7.222-.486-8.051-.988-.629-.386-.88-1.763-.964-2.4h-.092s.173,2.222,1,2.727,4.943,1.012,8.051.988c.9,0,1.207-.327,1.19-.81C1057.929,746.895,1057.581,747.073,1056.917,747.078Z" transform="translate(-787.234 -569.004)" opacity="0.2"/>
    <g id="Group_8" data-name="Group 8" transform="translate(676 444.243)">
      <path id="Path_267" data-name="Path 267" d="M771.246,220.3c-.191-.519-.4-1.044-.612-1.559l.679-.166c.218.521.427,1.052.62,1.577Z" transform="translate(-1189.442 -691.892)" fill="#3f3d56"/>
      <path id="Path_279" data-name="Path 279" d="M0,0,43.266,6.452l.081.685L.081.685Z" transform="translate(-455.32 -430.97) rotate(-45)" fill="#3f3d56"/>
      <path id="Path_277" data-name="Path 277" d="M0,0,47.953,6.43l.081.612L.081.612Z" transform="translate(-671.2 -360.566) rotate(-45)" fill="#3f3d56"/>
      <path id="Path_268" data-name="Path 268" d="M175.953,502.972a6.6,6.6,0,1,1,6.595-6.6A6.6,6.6,0,0,1,175.953,502.972Zm0-12.477a5.882,5.882,0,1,0,5.882,5.882,5.882,5.882,0,0,0-5.882-5.882Z" transform="translate(-802.639 -889.071)" fill="#3f3d56"/>
      <path id="Path_271" data-name="Path 271" d="M644.825,382.214a6.595,6.595,0,1,1,6.6-6.6A6.595,6.595,0,0,1,644.825,382.214Zm0-12.477a5.882,5.882,0,1,0,5.882,5.882A5.882,5.882,0,0,0,644.825,369.737Z" transform="translate(-1104.267 -801.274)" fill="#3f3d56"/>
      <path id="Path_272" data-name="Path 272" d="M769.747,256.46a6.595,6.595,0,1,1,6.6-6.6,6.595,6.595,0,0,1-6.6,6.6Zm0-12.477a5.882,5.882,0,1,0,5.882,5.882,5.882,5.882,0,0,0-5.882-5.882Z" transform="translate(-1184.63 -709.844)" fill="#3f3d56"/>
      <path id="Path_273" data-name="Path 273" d="M39.371,639.552a6.6,6.6,0,1,1,6.595-6.595A6.6,6.6,0,0,1,39.371,639.552Zm0-12.477a5.882,5.882,0,1,0,5.882,5.882,5.882,5.882,0,0,0-5.882-5.882Z" transform="translate(-714.776 -988.372)" fill="#3f3d56"/>
      <path id="Path_276" data-name="Path 276" d="M757.218,154.326a8.889,8.889,0,0,0-8.889,8.889c0,4.909,8.889,21.111,8.889,21.111s8.889-16.2,8.889-21.111A8.889,8.889,0,0,0,757.218,154.326Zm0,13.556a4.667,4.667,0,1,1,4.667-4.667,4.667,4.667,0,0,1-4.667,4.667Z" transform="translate(-1172.093 -643.807)" fill="#01717e"/>
      <path id="Path_263" data-name="Path 263" d="M169.02,332.452c-.626-.994-1.208-2.02-1.73-3.051l.625-.207c.515,1.017,1.089,2.03,1.707,3.01Zm-3.141-6.208c-.414-1.063-.779-2.153-1.083-3.24l.659-.12c.3,1.073.659,2.148,1.068,3.2Zm-1.829-6.541a33.512,33.512,0,0,1-.408-3.339l.674-.031a33.011,33.011,0,0,0,.4,3.295Zm.2-6.682-.675-.013a33.524,33.524,0,0,1,.266-3.348l.672.057a33.057,33.057,0,0,0-.263,3.3Zm.86-6.578-.663-.1c.257-1.095.574-2.194.942-3.268l.651.146c-.363,1.059-.676,2.144-.93,3.224Zm2.187-6.374-.633-.189c.477-1.046,1.015-2.088,1.6-3.1l.612.231c-.576,1-1.107,2.026-1.578,3.057Zm92.482-1.687c-.528-1.012-1.115-2.019-1.746-2.994l.6-.253c.639.988,1.235,2.01,1.77,3.035Zm-89.02-4.311-.586-.271c.684-.967,1.427-1.924,2.208-2.843l.557.309C172.162,292.173,171.429,293.117,170.755,294.071Zm85.228-1.551c-.727-.929-1.511-1.844-2.331-2.722l.539-.329c.831.89,1.625,1.818,2.362,2.759Zm-80.595-3.9-.524-.345c.871-.864,1.8-1.709,2.752-2.513l.487.378C177.161,286.929,176.248,287.763,175.388,288.615Zm75.665-1.376c-.906-.821-1.865-1.621-2.85-2.378l.465-.4c1,.768,1.97,1.579,2.888,2.41Zm-69.992-3.394-.447-.409c1.033-.737,2.117-1.449,3.222-2.116l.4.437C183.15,282.415,182.08,283.118,181.061,283.845Zm64.061-1.166c-1.059-.69-2.167-1.353-3.292-1.97l.379-.452c1.141.626,2.263,1.3,3.337,2Zm-57.5-2.79-.358-.463c1.169-.591,2.382-1.15,3.606-1.66l.31.485C189.969,278.754,188.773,279.305,187.619,279.888Zm50.729-.925c-1.186-.541-2.414-1.048-3.648-1.507l.282-.5c1.251.465,2.495.979,3.7,1.528Zm-43.46-2.107-.259-.5c1.273-.427,2.582-.817,3.893-1.157l.206.52C197.435,276.051,196.143,276.435,194.888,276.856Zm36.023-.659c-1.278-.375-2.592-.711-3.905-1l.177-.527c1.331.292,2.663.633,3.959,1.013Zm-28.235-1.363-.152-.532c1.341-.251,2.713-.46,4.079-.622l.1.54c-1.347.159-2.7.366-4.024.613Zm20.335-.371c-1.335-.2-2.7-.355-4.055-.465l.067-.543c1.374.111,2.757.27,4.11.471Zm-12.239-.586-.043-.545c1.374-.07,2.774-.1,4.15-.075l-.012.546c-1.359-.02-2.739,0-4.095.074Z" transform="translate(-798.917 -731.642)" fill="#3f3d56"/>
      <path id="Path_264" data-name="Path 264" d="M453.47,376.21c.222.52.432,1.051.626,1.578Z" transform="translate(-984.973 -806.498)" fill="#3f3d56"/>
      <path id="Path_266" data-name="Path 266" d="M441.973,147.57l-.683-.066c.147-1.249.346-2.508.592-3.743l.676.11C442.315,145.091,442.118,146.336,441.973,147.57Zm1.462-7.35-.665-.153c.344-1.217.741-2.438,1.181-3.628l.651.2c-.435,1.176-.827,2.382-1.167,3.585Zm109.514-6.543c-.131-.293-.265-.587-.537-1.163s-.7-1.42-1.146-2.25l.617-.273c.61,1.127,1.184,2.289,1.7,3.454Zm-106.9-.544-.634-.238c.534-1.159,1.122-2.316,1.748-3.439l.613.279c-.618,1.11-1.2,2.253-1.727,3.4Zm103.262-6.164c-.69-1.072-1.433-2.135-2.207-3.161l.567-.35c.784,1.038,1.535,2.114,2.233,3.2Zm-99.542-.511-.59-.318c.712-1.077,1.477-2.146,2.274-3.176l.563.355C451.232,124.338,450.476,125.394,449.773,126.458Zm94.884-5.66c-.854-.973-1.757-1.931-2.683-2.845l.506-.419c.937.925,1.851,1.893,2.715,2.878Zm-90.146-.465-.533-.391c.876-.976,1.8-1.935,2.751-2.851l.5.424C456.291,118.421,455.376,119.369,454.511,120.333Zm84.562-5.045c-1-.854-2.042-1.685-3.1-2.472l.435-.479c1.074.8,2.131,1.637,3.141,2.5Zm-78.909-.407-.467-.455c1.02-.853,2.086-1.683,3.171-2.468l.43.484c-1.072.776-2.126,1.6-3.134,2.439Zm72.514-4.331c-1.122-.717-2.286-1.406-3.462-2.048l.355-.531c1.189.65,2.368,1.347,3.5,2.072Zm-66.063-.34-.39-.51c1.143-.713,2.33-1.4,3.527-2.035l.349.534c-1.183.63-2.355,1.307-3.485,2.011Zm58.986-3.526c-1.224-.565-2.486-1.1-3.751-1.579l.268-.571c1.28.489,2.557,1.026,3.8,1.6Zm-51.866-.265-.305-.555c1.244-.558,2.526-1.082,3.811-1.557l.261.574c-1.269.47-2.537.988-3.766,1.539Zm44.248-2.645c-1.3-.4-2.632-.761-3.963-1.076l.174-.6c1.347.318,2.7.684,4.011,1.088Zm-36.6-.184-.214-.589c1.32-.391,2.673-.743,4.022-1.047l.166.6c-1.333.3-2.67.649-3.974,1.035Zm28.6-1.706c-1.35-.226-2.727-.411-4.092-.55l.076-.616c1.381.14,2.775.327,4.141.556Zm-20.581-.1-.118-.611c1.368-.215,2.763-.388,4.147-.515l.069.617c-1.367.125-2.746.3-4.1.509Zm12.364-.732c-1.375-.05-2.773-.057-4.138-.02l-.021-.62c1.381-.037,2.8-.031,4.187.021Z" transform="translate(-973.208 -605.961)" fill="#3f3d56"/>
      <rect id="Rectangle_23" data-name="Rectangle 23" width="60.006" height="0.546" transform="translate(-525.686 -427.476)" fill="#3f3d56"/>
      <path id="Path_278" data-name="Path 278" d="M0,0,40.451,6.24l.081.705L.081.705Z" transform="translate(-570.199 -398.073) rotate(-45)" fill="#3f3d56"/>
      <rect id="Rectangle_25" data-name="Rectangle 25" width="40.103" height="0.546" transform="translate(-620.449 -394.516)" fill="#3f3d56"/>
      <path id="Path_269" data-name="Path 269" d="M323.36,502.972a6.6,6.6,0,1,1,6.6-6.6,6.6,6.6,0,0,1-6.6,6.6Zm0-12.477a5.882,5.882,0,1,0,5.882,5.882,5.882,5.882,0,0,0-5.882-5.882Z" transform="translate(-897.467 -889.071)" fill="#3f3d56"/>
      <path id="Path_270" data-name="Path 270" d="M441.619,382.214a6.595,6.595,0,1,1,6.6-6.6,6.595,6.595,0,0,1-6.6,6.6Zm0-12.477a5.882,5.882,0,1,0,5.882,5.882,5.882,5.882,0,0,0-5.882-5.882Z" transform="translate(-973.544 -801.274)" fill="#3f3d56"/>
      <path id="Path_274" data-name="Path 274" d="M163.423,399.173a8.889,8.889,0,0,0-8.889,8.889c0,4.909,8.889,21.111,8.889,21.111s8.889-16.2,8.889-21.111A8.889,8.889,0,0,0,163.423,399.173Zm0,13.556a4.667,4.667,0,1,1,4.667-4.667,4.667,4.667,0,0,1-4.667,4.667Z" transform="translate(-790.104 -822.318)" fill="#01717e"/>
      <path id="Path_275" data-name="Path 275" d="M429.09,274.251a8.889,8.889,0,0,0-8.889,8.889c0,4.909,8.889,21.111,8.889,21.111s8.889-16.2,8.889-21.111a8.889,8.889,0,0,0-8.889-8.889Zm0,13.556a4.667,4.667,0,1,1,4.667-4.667,4.667,4.667,0,0,1-4.667,4.667Z" transform="translate(-961.008 -731.431)" fill="#01717e"/>
    </g>
    <path id="Path_280" data-name="Path 280" d="M250.355,111.257l-2.212,1.3,1.342-2.258a2.3,2.3,0,0,0-1.337-.441h-.036a2.784,2.784,0,0,1-.459-.032l-.75.439.321-.54a2.646,2.646,0,0,1-1.311-.922l-1.341.791.847-1.424a4.04,4.04,0,0,0-3.006-1.4,4.175,4.175,0,0,0-3.44,1.962,2.624,2.624,0,0,1-2.28,1.133h-.074c-1.541,0-2.789,1.615-2.789,3.606s1.254,3.608,2.795,3.608a2.235,2.235,0,0,0,.971-.225,4.319,4.319,0,0,1,3.376-.061,3.777,3.777,0,0,0,2.87,0,4.323,4.323,0,0,1,3.345.061,2.235,2.235,0,0,0,.962.225c1.541,0,2.789-1.615,2.789-3.608A4.3,4.3,0,0,0,250.355,111.257Z" transform="translate(-159.477 -92.714)" fill="#f2f2f2"/>
    <path id="Path_281" data-name="Path 281" d="M246.22,147.5a4.428,4.428,0,0,0-2.39.24,3.782,3.782,0,0,1-2.869,0,4.33,4.33,0,0,0-3.376.061,2.219,2.219,0,0,1-.972.225c-1.368,0-2.507-1.274-2.743-2.955a2.514,2.514,0,0,0,.684-.682,3.991,3.991,0,0,1,6.861-.021,2.691,2.691,0,0,0,2.273,1.154h.036A2.8,2.8,0,0,1,246.22,147.5Z" transform="translate(-160.039 -123.196)" opacity="0.03"/>
  </g>
</svg>
